<svg xmlns="http://www.w3.org/2000/svg" width="850" height="310">
  <rect x="50" y="100" width="160" height="160" stroke="black" fill="none"/>
  <text x="30" y="193.0" style="font-size: 60px;" text_anchor="middle" dominant_baseline="middle">(</text>
  <g>
    <svg xmlns:xlink="http://www.w3.org/1999/xlink" version="1.1" id="Layer_1" x="91.0" y="55" viewBox="0 0 512 512" style="enable-background:new 0 0 512 512;" xml:space="preserve" width="40" height="40">
<path style="fill:#FF9842;" d="M406.069,114.759C388.413,17.655,300.138,0,256,0S123.586,17.655,105.931,114.759  s-44.138,220.69-44.138,220.69c88.276,70.621,167.724,70.621,194.207,70.621s105.931,0,194.207-70.621  C450.207,335.448,423.724,211.862,406.069,114.759z"/>
<path style="fill:#E6873C;" d="M282.22,1.949C272.579,0.584,263.607,0,256,0c-44.138,0-132.414,17.655-150.069,114.759  s-44.138,220.69-44.138,220.69c58.067,46.454,112.204,62.28,150.069,67.72V176.552C211.862,176.552,219.362,49.897,282.22,1.949z"/>
<path style="fill:#FF6472;" d="M300.138,326.621v30.82c0,7.883,5.226,14.81,12.804,16.975l73.226,20.921  c22.937,6.553,40.054,25.726,43.977,49.257l7.808,46.847c1.793,10.762-6.505,20.558-17.415,20.558H91.461  c-10.91,0-19.209-9.796-17.415-20.557l7.808-46.847c3.922-23.531,21.038-42.703,43.977-49.257l73.226-20.921  c7.58-2.166,12.804-9.094,12.804-16.975v-30.821H300.138z"/>
<path style="fill:#FAD7A5;" d="M256,476.69c54.771,0,101.148-35.665,117.362-85.01l-60.419-17.263  c-7.58-2.165-12.804-9.094-12.804-16.975v-30.82h-88.276v30.82c0,7.883-5.226,14.81-12.804,16.975l-60.419,17.263  C154.852,441.025,201.229,476.69,256,476.69z"/>
<path style="fill:#F0C891;" d="M300.138,335.448l-24.276-8.828h-64v30.82c0,7.883-5.226,14.81-12.804,16.975l-18.71,5.345v0.001  C254.764,415.251,300.138,335.448,300.138,335.448z"/>
<g>
	<path style="fill:#D25566;" d="M100.725,409.69c-9.753,9.111-16.59,21.223-18.87,34.905l-7.808,46.847   C72.253,502.204,80.551,512,91.461,512h49.78v-30.282c0-9.021-2.764-17.824-7.919-25.226L100.725,409.69z"/>
	<path style="fill:#D25566;" d="M411.275,409.69c9.753,9.111,16.59,21.223,18.87,34.905l7.808,46.847   c1.793,10.761-6.505,20.557-17.415,20.557h-49.78v-30.282c0-9.021,2.764-17.824,7.919-25.226L411.275,409.69z"/>
</g>
<path style="fill:#FFE1B4;" d="M388.413,203.034v-79.448H123.586v79.448c-9.75,0-17.655,7.904-17.655,17.655v17.655  c0,9.75,7.905,17.655,17.655,17.655c0.487,0,0.943-0.105,1.42-0.143c5.282,29.652,25.44,55.026,54.07,66.477l44.138,17.655  c21.046,8.418,44.524,8.418,65.57,0l44.138-17.655c28.631-11.452,48.789-36.825,54.07-66.477c0.477,0.039,0.934,0.143,1.42,0.143  c9.75,0,17.655-7.905,17.655-17.655V220.69C406.069,210.938,398.163,203.034,388.413,203.034z"/>
<path style="fill:#FAD7A5;" d="M123.586,123.586v79.448c-9.75,0-17.655,7.904-17.655,17.655v17.655  c0,9.75,7.905,17.655,17.655,17.655c0.487,0,0.943-0.105,1.42-0.143c5.282,29.652,25.44,55.026,54.07,66.477l44.138,17.655  c9.963,3.986,20.472,6.018,31.009,6.23c-29.95-13.291-52.14-34.766-66.545-52.321c-12.942-15.775-19.955-35.525-19.955-55.93  v-29.705c0-8.936,6.677-16.462,15.549-17.529l74.382-8.94l4.966,20.966c0,0,67.862-11.034,98.483-23.724l18.483-37.793v-17.655  H123.586z"/>
<path style="fill:#D7AF7D;" d="M256,300.138c-15.694,0-30.375-3.862-40.276-10.599c-4.03-2.741-5.078-8.233-2.332-12.263  c2.737-4.025,8.233-5.074,12.263-2.332c6.94,4.719,18.284,7.539,30.345,7.539c12.061,0,23.405-2.819,30.345-7.539  c4.039-2.745,9.522-1.703,12.263,2.332c2.745,4.03,1.698,9.522-2.332,12.263C286.374,296.276,271.694,300.138,256,300.138z"/>
<g>
	<path style="fill:#5A4137;" d="M189.793,238.345L189.793,238.345c-7.313,0-13.241-5.929-13.241-13.241v-8.828   c0-7.313,5.929-13.241,13.241-13.241l0,0c7.313,0,13.241,5.929,13.241,13.241v8.828   C203.034,232.416,197.105,238.345,189.793,238.345z"/>
	<path style="fill:#5A4137;" d="M322.207,238.345L322.207,238.345c-7.313,0-13.241-5.929-13.241-13.241v-8.828   c0-7.313,5.929-13.241,13.241-13.241l0,0c7.313,0,13.241,5.929,13.241,13.241v8.828   C335.448,232.416,329.519,238.345,322.207,238.345z"/>
</g>
<path style="fill:#FF9842;" d="M123.586,203.034c0-8.828,0-35.31,26.483-70.621l8.828,44.138l88.276-8.828l17.655-26.483  l8.828,44.138c0,0,72.276-13.241,79.448-17.655l17.655-26.483c0,0,17.655,26.483,17.655,61.793h17.655l1.628-62.521  c0.389-14.944-11.661-27.249-26.61-27.171l-248.809,1.281c-14.573,0.075-26.347,11.91-26.347,26.483v61.929H123.586z"/>
<g>
	<path style="fill:#FF6472;" d="M358.177,94.489l-66.325,2.802c-4.884,0.206-7.969-5.249-6.15-10.874L300.131,41.8   c1.82-5.626,7.513-8.243,11.352-5.215l52.126,41.107L358.177,94.489z"/>
	<path style="fill:#FF6472;" d="M371.772,98.886l52.126,41.107c3.839,3.027,9.533,0.412,11.352-5.215l14.429-44.617   c1.82-5.626-1.265-11.081-6.15-10.874l-66.325,2.802L371.772,98.886z"/>
</g>
<path style="fill:#C95264;" d="M416.728,108.786L315.936,76.192c-2.322-0.75-3.592-3.236-2.841-5.558s3.236-3.592,5.558-2.841  l100.792,32.594c2.322,0.75,3.592,3.236,2.841,5.558C421.536,108.265,419.05,109.536,416.728,108.786z"/>
<path style="fill:#A5465A;" d="M370.658,107.804l-16.799-5.432c-4.639-1.5-7.183-6.476-5.683-11.115l5.432-16.799  c1.5-4.639,6.477-7.183,11.115-5.683l16.799,5.432c4.639,1.5,7.183,6.476,5.683,11.115l-5.432,16.799  C380.273,106.759,375.297,109.303,370.658,107.804z"/>
<path style="fill:#D25566;" d="M125.831,395.339c-1.409,0.403-2.722,0.994-4.085,1.491l0.119,0.362  c19.094,58.11,72.999,97.153,134.134,97.153s115.04-39.043,134.135-97.153l0.119-0.362c-1.363-0.495-2.677-1.088-4.086-1.491  l-12.807-3.659C357.147,441.025,310.77,476.69,256,476.69s-101.148-35.665-117.362-85.01L125.831,395.339z"/>
<path style="fill:#E6873C;" d="M221.732,114.162l-89.455,0.46c-14.572,0.076-26.346,11.911-26.346,26.483v61.93h17.655  c0-8.828,0-35.31,26.483-70.621l8.828,44.138l53.394-5.34C213.166,161.567,215.649,139.73,221.732,114.162z"/>
<g>
</g>
<g>
</g>
<g>
</g>
<g>
</g>
<g>
</g>
<g>
</g>
<g>
</g>
<g>
</g>
<g>
</g>
<g>
</g>
<g>
</g>
<g>
</g>
<g>
</g>
<g>
</g>
<g>
</g>
</svg>
    <text x="141.0" y="75.0" style="font-size: 15px;" dominant_baseline="middle" text_anchor="middle">Faye</text>
  </g>
  <svg xmlns:xlink="http://www.w3.org/1999/xlink" version="1.1" id="Layer_1" viewBox="0 0 512 512" xml:space="preserve" x="70.0" y="110" width="120" height="120">
<g>
	
		<rect x="372.173" y="190.378" transform="matrix(-0.9063 -0.4226 0.4226 -0.9063 625.8049 610.86)" style="fill:#566916;" width="16.879" height="91.371"/>
	
		<rect x="85.702" y="227.632" transform="matrix(-0.4226 -0.9063 0.9063 -0.4226 -27.0423 454.9144)" style="fill:#566916;" width="91.371" height="16.879"/>
	<rect x="247.56" y="175.352" style="fill:#566916;" width="16.879" height="97.528"/>
</g>
<g>
	<polygon style="fill:#F89890;" points="288.532,0 265.7,0 247.842,90.022 304.105,45.011  "/>
	<path style="fill:#F89890;" d="M287.586,45.011h2.836C289.477,45.011,288.532,45.022,287.586,45.011z"/>
</g>
<polygon style="fill:#FFC5BF;" points="265.7,0 270.347,45.011 239.684,78.769 207.895,45.011 223.468,0 "/>
<path style="fill:#F89890;" d="M192.827,45.011c0,0-4.344,70.251-4.344,71.264c0,9.182,1.834,17.948,5.165,25.926v-0.416  l93.938-96.729C287.586,45.011,192.827,45.011,192.827,45.011z"/>
<path style="fill:#EA3F31;" d="M319.173,45.011h-28.751c-0.945,0-1.89,0.011-2.836,0.045L256,183.791  c37.292,0,67.517-30.225,67.517-67.516C323.517,115.262,319.173,45.011,319.173,45.011z"/>
<path style="fill:#F16C60;" d="M287.586,45.056c-52.179,1.497-93.938,44.178-93.938,96.729v0.416  c10.172,24.43,34.253,41.59,62.351,41.59c18.646,0,33.758-30.225,33.758-67.516C289.758,115.273,287.654,47.081,287.586,45.056z"/>
<g>
	<polygon style="fill:#F89890;" points="501.002,54.88 480.309,45.23 426.079,119.271 496.093,102.255  "/>
	<path style="fill:#F89890;" d="M481.122,95.274l2.57,1.198C482.835,96.073,481.974,95.684,481.122,95.274z"/>
</g>
<polygon style="fill:#FFC5BF;" points="480.309,45.23 465.498,87.989 423.441,105.625 408.897,61.595 442.034,27.382 "/>
<path style="fill:#F89890;" d="M395.24,55.227c0,0-33.625,61.833-34.054,62.751c-3.881,8.321-5.922,17.041-6.276,25.68l0.176-0.377  l126.016-47.966C481.122,95.274,395.24,55.227,395.24,55.227z"/>
<path style="fill:#EA3F31;" d="M509.749,108.623l-26.057-12.151c-0.856-0.399-1.718-0.789-2.589-1.158l-87.259,112.388  c33.798,15.761,73.964,1.141,89.725-32.657C483.996,174.127,509.749,108.623,509.749,108.623z"/>
<path style="fill:#F16C60;" d="M481.103,95.315c-47.923-20.695-103.808,0.339-126.016,47.966l-0.176,0.377  c-1.105,26.439,13.467,52.17,38.932,64.044c16.899,7.88,43.369-13.126,59.129-46.924C453.397,159.871,480.308,97.179,481.103,95.315  z"/>
<g>
	<polygon style="fill:#F89890;" points="69.967,27.382 49.275,37.031 71.133,126.166 103.103,61.594  "/>
	<path style="fill:#F89890;" d="M88.133,68.575l2.57-1.198C89.845,67.776,88.993,68.186,88.133,68.575z"/>
</g>
<polygon style="fill:#FFC5BF;" points="49.275,37.031 72.508,75.86 58.985,119.415 15.907,102.254 11,54.879 "/>
<path style="fill:#F89890;" d="M2.251,108.622c0,0,25.752,65.504,26.181,66.423c3.88,8.321,9.248,15.492,15.638,21.315l-0.176-0.377  L88.152,68.616C88.133,68.575,2.251,108.622,2.251,108.622z"/>
<path style="fill:#EA3F31;" d="M116.76,55.226L90.703,67.377c-0.856,0.399-1.709,0.809-2.551,1.239l30.004,139.086  c33.798-15.759,48.417-55.926,32.658-89.724C150.385,117.06,116.76,55.226,116.76,55.226z"/>
<path style="fill:#F16C60;" d="M88.152,68.616c-46.658,23.408-66.467,79.738-44.258,127.365l0.176,0.377  c19.544,17.842,48.621,23.218,74.086,11.343c16.899-7.88,17.822-41.66,2.063-75.458C119.795,131.336,89.069,70.423,88.152,68.616z"/>
<path style="fill:#A7B65F;" d="M295.385,444.484c-0.011,0-61.89-22.506-61.89-22.506L256,512h50.637L295.385,444.484z"/>
<polygon style="fill:#C4CE94;" points="256,410.725 256,512 205.363,512 216.615,444.484 "/>
<path style="fill:#A7B65F;" d="M365.714,264.44l-79.602,180.044h9.261c1.328-0.979,85.307-63.004,104.099-180.044H365.714z"/>
<path style="fill:#C4CE94;" d="M289.758,264.44L256,444.484h30.112c0,0,65.12-62.081,79.602-180.044H289.758z"/>
<path style="fill:#E2E7CA;" d="M112.516,264.44h177.242C289.758,379.78,256,444.484,256,444.484h-39.385  C216.615,444.484,131.455,382.402,112.516,264.44z"/>
<path style="fill:#9E52B6;" d="M303.824,452.923h-95.648c-4.661,0-8.44-3.779-8.44-8.44c0-4.661,3.779-8.44,8.44-8.44h95.648  c4.662,0,8.44,3.779,8.44,8.44C312.264,449.144,308.486,452.923,303.824,452.923z"/>
</svg>
  <text x="100.0" y="182.0" style="font-size: 45px; fill: white; font-weight: bold; stroke: black; stroke-width: 2px;" dominant_baseline="middle">88</text>
  <rect x="280" y="100" width="160" height="160" stroke="black" fill="none"/>
  <text x="440" y="193.0" style="font-size: 60px;" text_anchor="middle" dominant_baseline="middle">)</text>
  <g>
    <svg xmlns:xlink="http://www.w3.org/1999/xlink" version="1.1" id="Layer_1" x="321.0" y="55" viewBox="0 0 512 512" style="enable-background:new 0 0 512 512;" xml:space="preserve" width="40" height="40">
<path style="fill:#00BEA5;" d="M300.051,326.987v30.759c0,7.867,5.216,14.781,12.779,16.942l73.081,20.88  c22.892,6.54,39.975,25.675,43.89,49.159l7.793,46.754c1.79,10.741-6.492,20.517-17.38,20.517H91.787  c-10.888,0-19.171-9.777-17.38-20.517l7.793-46.754c3.914-23.485,20.997-42.619,43.89-49.159l73.081-20.88  c7.565-2.162,12.779-9.076,12.779-16.942v-30.759H300.051z"/>
<path style="fill:#B48764;" d="M256.001,441.519c37.232,0,68.291-26.398,75.503-61.495l-18.673-5.335  c-7.565-2.161-12.779-9.076-12.779-16.942v-30.759H211.95v30.759c0,7.867-5.216,14.781-12.779,16.942l-18.673,5.335  C187.709,415.122,218.769,441.519,256.001,441.519z"/>
<path style="fill:#966D50;" d="M300.051,335.798l-24.228-8.81H211.95v30.759c0,7.867-5.216,14.781-12.779,16.942l-18.673,5.335  v0.001C254.767,415.443,300.051,335.798,300.051,335.798z"/>
<path style="fill:#553732;" d="M379.343,36.253c2.203-15.418,18.722-7.342,18.722-7.342c-11.013-57.266-125.911-8.076-125.911-8.076  l10.646-11.013c-53.503-30.147-120.405,18.722-120.405,18.722c-20.924-6.608-73.785,13.95-73.785,64.24  c0,51.393,26.43,128.482,26.43,128.482h290.734c0,0,8.81-96.912,8.81-132.152S379.343,36.253,379.343,36.253z"/>
<path style="fill:#64463C;" d="M398.064,28.911c-36.342-45.519-104.07,10.646-104.07,10.646  c35.241,2.753,31.386,44.601,31.386,44.601c-7.709-12.665-19.272-10.462-19.272-10.462c-1.652,40.196-28.633,79.291-43.133,86.266  l0.735,61.304h142.063c0,0,8.81-96.912,8.81-132.152s-35.241-52.861-35.241-52.861C381.545,20.835,398.064,28.911,398.064,28.911z"/>
<path style="fill:#C39772;" d="M388.153,203.646v-79.291H123.849v79.291c-9.731,0-17.62,7.888-17.62,17.62v17.62  c0,9.731,7.889,17.62,17.62,17.62c0.486,0,0.942-0.105,1.417-0.143c5.272,29.593,25.39,54.917,53.963,66.346l44.051,17.62  c21.004,8.402,44.436,8.402,65.441,0l44.051-17.62c28.575-11.429,48.693-36.753,53.963-66.346c0.476,0.039,0.932,0.143,1.417,0.143  c9.731,0,17.62-7.889,17.62-17.62v-17.62C405.773,211.534,397.884,203.646,388.153,203.646z"/>
<path style="fill:#B48764;" d="M352.912,124.354H123.849v79.291c-9.731,0-17.62,7.888-17.62,17.62v17.62  c0,9.731,7.889,17.62,17.62,17.62c0.486,0,0.942-0.105,1.417-0.143c5.272,29.593,25.39,54.917,53.963,66.346l44.051,17.62  c9.943,3.978,20.432,6.006,30.948,6.218c-29.898-13.268-52.048-34.709-66.423-52.23c-12.912-15.74-19.907-35.449-19.907-55.808  v-64.659c0-9.137,6.981-16.876,16.094-17.533c14.479-1.044,27.869-5.533,36.767-5.533c26.43,0,61.671-8.81,114.532,8.81  c34.461,11.487,44.051-8.81,44.051-8.81L352.912,124.354z"/>
<path style="fill:#553732;" d="M132.659,203.646c0,0,0-44.051,26.43-70.481c0,0,17.115,6.46,52.861,0c22.851-4.13,27.165,0,27.165,0  s-1.836,18.171-27.165,26.43c0,0,26.43,17.62,52.861-8.81l-1.836,9.177c0,0,27.898,5.506,52.861-23.861  c0,0,9.545-0.735,19.456,5.873c17.292,11.528,35.241,4.894,35.241,4.894s17.62,21.536,17.62,56.777h17.62v-96.912H115.038v96.912  h17.62V203.646z"/>
<path style="fill:#966D50;" d="M256.001,300.557c-15.663,0-30.315-3.854-40.196-10.578c-4.022-2.736-5.068-8.217-2.327-12.238  c2.731-4.017,8.217-5.064,12.238-2.327c6.926,4.71,18.248,7.524,30.285,7.524c12.037,0,23.359-2.814,30.285-7.524  c4.031-2.74,9.503-1.699,12.238,2.327c2.74,4.022,1.695,9.503-2.327,12.238C286.315,296.703,271.663,300.557,256.001,300.557z"/>
<path style="fill:#64463C;" d="M315.836,136.102c0,0,9.545-0.735,19.456,5.874c17.292,11.528,35.241,4.894,35.241,4.894  s17.62,21.536,17.62,56.777h17.62v-96.912H299.467c-9.286,26.635-26.082,48.221-36.49,53.228  C262.975,159.962,290.873,165.468,315.836,136.102z"/>
<g>
	<path style="fill:#5A4137;" d="M189.925,238.886L189.925,238.886c-7.298,0-13.215-5.917-13.215-13.215v-8.81   c0-7.298,5.917-13.215,13.215-13.215l0,0c7.298,0,13.215,5.917,13.215,13.215v8.81C203.14,232.97,197.223,238.886,189.925,238.886z   "/>
	<path style="fill:#5A4137;" d="M322.077,238.886L322.077,238.886c-7.298,0-13.215-5.917-13.215-13.215v-8.81   c0-7.298,5.917-13.215,13.215-13.215l0,0c7.298,0,13.215,5.917,13.215,13.215v8.81C335.292,232.97,329.375,238.886,322.077,238.886   z"/>
</g>
<g>
	<path style="fill:#00AA9A;" d="M256.001,459.14c44.307,0,82.936-31.168,92.435-74.277l-16.922-4.835l-0.01-0.002   c-7.212,35.095-38.271,61.494-75.503,61.494s-68.291-26.398-75.503-61.494l-0.01,0.002l-16.922,4.835   C173.064,427.971,211.692,459.14,256.001,459.14z"/>
	<path style="fill:#00AA9A;" d="M101.032,409.893c-9.734,9.093-16.558,21.181-18.833,34.836l-7.793,46.754   C72.617,502.223,80.898,512,91.786,512h49.681v-30.222c0-9.003-2.759-17.789-7.904-25.176L101.032,409.893z"/>
	<path style="fill:#00AA9A;" d="M410.969,409.893c9.734,9.093,16.558,21.181,18.833,34.836l7.793,46.754   c1.79,10.74-6.492,20.517-17.38,20.517h-49.681v-30.222c0-9.003,2.759-17.789,7.904-25.176L410.969,409.893z"/>
</g>
<g>
</g>
<g>
</g>
<g>
</g>
<g>
</g>
<g>
</g>
<g>
</g>
<g>
</g>
<g>
</g>
<g>
</g>
<g>
</g>
<g>
</g>
<g>
</g>
<g>
</g>
<g>
</g>
<g>
</g>
</svg>
    <text x="371.0" y="75.0" style="font-size: 15px;" dominant_baseline="middle" text_anchor="middle">Mike</text>
  </g>
  <svg xmlns:xlink="http://www.w3.org/1999/xlink" version="1.1" id="Layer_1" viewBox="0 0 512 512" xml:space="preserve" x="300.0" y="110" width="120" height="120">
<g>
	
		<rect x="372.173" y="190.378" transform="matrix(-0.9063 -0.4226 0.4226 -0.9063 625.8049 610.86)" style="fill:#566916;" width="16.879" height="91.371"/>
	
		<rect x="85.702" y="227.632" transform="matrix(-0.4226 -0.9063 0.9063 -0.4226 -27.0423 454.9144)" style="fill:#566916;" width="91.371" height="16.879"/>
	<rect x="247.56" y="175.352" style="fill:#566916;" width="16.879" height="97.528"/>
</g>
<g>
	<polygon style="fill:#F89890;" points="288.532,0 265.7,0 247.842,90.022 304.105,45.011  "/>
	<path style="fill:#F89890;" d="M287.586,45.011h2.836C289.477,45.011,288.532,45.022,287.586,45.011z"/>
</g>
<polygon style="fill:#FFC5BF;" points="265.7,0 270.347,45.011 239.684,78.769 207.895,45.011 223.468,0 "/>
<path style="fill:#F89890;" d="M192.827,45.011c0,0-4.344,70.251-4.344,71.264c0,9.182,1.834,17.948,5.165,25.926v-0.416  l93.938-96.729C287.586,45.011,192.827,45.011,192.827,45.011z"/>
<path style="fill:#EA3F31;" d="M319.173,45.011h-28.751c-0.945,0-1.89,0.011-2.836,0.045L256,183.791  c37.292,0,67.517-30.225,67.517-67.516C323.517,115.262,319.173,45.011,319.173,45.011z"/>
<path style="fill:#F16C60;" d="M287.586,45.056c-52.179,1.497-93.938,44.178-93.938,96.729v0.416  c10.172,24.43,34.253,41.59,62.351,41.59c18.646,0,33.758-30.225,33.758-67.516C289.758,115.273,287.654,47.081,287.586,45.056z"/>
<g>
	<polygon style="fill:#F89890;" points="501.002,54.88 480.309,45.23 426.079,119.271 496.093,102.255  "/>
	<path style="fill:#F89890;" d="M481.122,95.274l2.57,1.198C482.835,96.073,481.974,95.684,481.122,95.274z"/>
</g>
<polygon style="fill:#FFC5BF;" points="480.309,45.23 465.498,87.989 423.441,105.625 408.897,61.595 442.034,27.382 "/>
<path style="fill:#F89890;" d="M395.24,55.227c0,0-33.625,61.833-34.054,62.751c-3.881,8.321-5.922,17.041-6.276,25.68l0.176-0.377  l126.016-47.966C481.122,95.274,395.24,55.227,395.24,55.227z"/>
<path style="fill:#EA3F31;" d="M509.749,108.623l-26.057-12.151c-0.856-0.399-1.718-0.789-2.589-1.158l-87.259,112.388  c33.798,15.761,73.964,1.141,89.725-32.657C483.996,174.127,509.749,108.623,509.749,108.623z"/>
<path style="fill:#F16C60;" d="M481.103,95.315c-47.923-20.695-103.808,0.339-126.016,47.966l-0.176,0.377  c-1.105,26.439,13.467,52.17,38.932,64.044c16.899,7.88,43.369-13.126,59.129-46.924C453.397,159.871,480.308,97.179,481.103,95.315  z"/>
<g>
	<polygon style="fill:#F89890;" points="69.967,27.382 49.275,37.031 71.133,126.166 103.103,61.594  "/>
	<path style="fill:#F89890;" d="M88.133,68.575l2.57-1.198C89.845,67.776,88.993,68.186,88.133,68.575z"/>
</g>
<polygon style="fill:#FFC5BF;" points="49.275,37.031 72.508,75.86 58.985,119.415 15.907,102.254 11,54.879 "/>
<path style="fill:#F89890;" d="M2.251,108.622c0,0,25.752,65.504,26.181,66.423c3.88,8.321,9.248,15.492,15.638,21.315l-0.176-0.377  L88.152,68.616C88.133,68.575,2.251,108.622,2.251,108.622z"/>
<path style="fill:#EA3F31;" d="M116.76,55.226L90.703,67.377c-0.856,0.399-1.709,0.809-2.551,1.239l30.004,139.086  c33.798-15.759,48.417-55.926,32.658-89.724C150.385,117.06,116.76,55.226,116.76,55.226z"/>
<path style="fill:#F16C60;" d="M88.152,68.616c-46.658,23.408-66.467,79.738-44.258,127.365l0.176,0.377  c19.544,17.842,48.621,23.218,74.086,11.343c16.899-7.88,17.822-41.66,2.063-75.458C119.795,131.336,89.069,70.423,88.152,68.616z"/>
<path style="fill:#A7B65F;" d="M295.385,444.484c-0.011,0-61.89-22.506-61.89-22.506L256,512h50.637L295.385,444.484z"/>
<polygon style="fill:#C4CE94;" points="256,410.725 256,512 205.363,512 216.615,444.484 "/>
<path style="fill:#A7B65F;" d="M365.714,264.44l-79.602,180.044h9.261c1.328-0.979,85.307-63.004,104.099-180.044H365.714z"/>
<path style="fill:#C4CE94;" d="M289.758,264.44L256,444.484h30.112c0,0,65.12-62.081,79.602-180.044H289.758z"/>
<path style="fill:#E2E7CA;" d="M112.516,264.44h177.242C289.758,379.78,256,444.484,256,444.484h-39.385  C216.615,444.484,131.455,382.402,112.516,264.44z"/>
<path style="fill:#9E52B6;" d="M303.824,452.923h-95.648c-4.661,0-8.44-3.779-8.44-8.44c0-4.661,3.779-8.44,8.44-8.44h95.648  c4.662,0,8.44,3.779,8.44,8.44C312.264,449.144,308.486,452.923,303.824,452.923z"/>
</svg>
  <text x="330.0" y="182.0" style="font-size: 45px; fill: white; font-weight: bold; stroke: black; stroke-width: 2px;" dominant_baseline="middle">48</text>
  <rect x="510" y="100" width="160" height="120.0" stroke="black" fill="none"/>
  <g>
    <svg xmlns:xlink="http://www.w3.org/1999/xlink" width="40" height="40" viewBox="0 0 128 128" aria-hidden="true" role="img" class="iconify iconify--noto" preserveAspectRatio="xMidYMid meet" x="540.5" y="55">
      <path d="M71.74 3.32c-.76-.57-4.04 4.69-5.07 10.28c-.82 4.45-1.05 16.35-.56 22.24c.56 6.8 12.11 28.3 12.11 28.3L82.3 86.1l12.81 1.69s3.8-46.32 4.22-48.43c.42-2.11 2.44-11.54 4.13-17.64c1.4-5.04 4.32-13.61 3.61-14.03c-.7-.42-3.1 2.82-4.93 4.22s-7.29 5.68-9.76 8.87C88.16 26.22 84.4 35 84.4 35s-9.71-19.19-10.7-22.24c-1.4-4.37-1.4-9.02-1.96-9.44z" fill="#94a61a"/>
      <path d="M98.39 21.24c-.61.17-5.73 9.76-6.76 13.89s-3.38 10.32-3.75 20.55c-.32 8.85-.56 13.61-.56 13.61l3.28 3s-.19-15.86.66-21.96c.84-6.1 3.12-15.32 4.13-18.68c1.22-4.02 3.66-10.59 3-10.41z" fill="#b5d024"/>
      <path d="M52.59 35.98l-3.94 3.47s8.92 8.82 10.79 11.54c1.88 2.72 4.88 7.98 4.88 7.98s-8.07-7.6-10.79-10.14c-2.72-2.53-6.66-5.07-6.66-5.07l-1.69 4.69l9.1 7.7L65.4 87.64s-10.28-4.55-11.97-5.49s-9.67-4.88-9.67-4.88l-.56 4.22s4.22 3.57 7.13 4.88s18.44 9.43 18.44 9.43l14.59.05l15.2 14.92s3.1 4.22 4.32 5.91c1.22 1.69 2.91 3.85 3.38 3.94c.47.09 3.1-1.78 4.32-2.72s2.63-2.06 2.63-2.63s-3.57-4.04-3.57-4.04L93.6 88.82l-2.72-17.08s-2.16-7.6-3.38-14.45c-.76-4.27-1.78-13.89-1.78-13.89l-4.22.56s1.06 8.05 1.97 13.61c1.22 7.41 2.91 14.27 2.91 14.27s-5.54-10.32-7.7-13.8c-2.16-3.47-9.29-14.64-9.29-14.64l-3.75 1.97s6.29 9.76 7.88 12.39c1.6 2.63 7.51 12.95 7.51 12.95l-7.98-7.04s-7.04-11.07-9.1-14.17c-2.07-3.1-11.36-13.52-11.36-13.52z" fill="#737f39"/>
      <path d="M12.89 92.38c-.45.81 4.13.28 8.26.56s15.77 1.97 22.99 3.19s18.69 3.15 24.64 4.04c5.68.84 9.1-1.51 11.05-1.97c2.98-.7 3.73 0 3.73 0l6.29 6.95s2.02 5.42 3.38 9.01c1.6 4.22 3.57 11.92 4.5 12.11s5.35-3.57 5.63-4.22c.28-.66-4.13-11.92-4.6-13.51s-1.97-5.82-1.97-5.82s5.15 5.35 7.13 7.41c2.35 2.44 4.5 4.32 5.44 4.5s4.5-5.26 4.5-6.1s-4.5-4.5-6.01-6.01c-1.5-1.5-5.35-6.66-5.35-6.66s-2.16-6.66-2.35-8.17c-.19-1.5.11-6.33 1.14-14.68c.5-4.04 5.62-24.45 8.52-32.62c2.91-8.17 5.82-16.89 5.16-17.27c-.66-.38-4.69 4.79-8.07 7.88s-6.38 5.91-7.6 8.35c-1.22 2.44-5.9 9.24-7.23 19.71c-1.03 8.17-1.42 9.1-1.31 11.64c.28 6.48 2.1 11.57.66 12.2c-1.5.66-5.44-5.73-7.13-8.45c-1.69-2.72-9.1-12.48-16.14-16.71s-17.64-7.41-19.43-7.7c-1.78-.28-11.73-6.38-11.73-6.38l-10.23 3.66s-3.66-.47-5.26-.66s-4.41-.94-4.41-.38s5.32 5.73 6.44 6.85c1.13 1.13 6.98 7.32 8.85 8.73S48.75 77.54 49.4 78.02c3.38 2.53 9.42 8.54 15.72 11.24c5.26 2.25 10.7 2.98 10.7 4.01c0 1.03-2.53.28-5.63-.35c-2.42-.49-4.93-1.34-13.66-3.45c-7.57-1.83-12.11-2.16-13.05-2.16c-.94 0-15.37-.16-17.91.03s-10.28.74-12.68 5.04z" fill="#96a51d"/>
      <path d="M30.44 53.25c-.06.5 4.04 2.72 7.98 4.97c3.94 2.25 14.17 7.41 19.15 11.26c4.97 3.85 10.61 10.04 13.42 12.67c2.74 2.56 9.85 7.7 12.29 8.82c2.44 1.13 6.76 3.66 6.76 3.66l.66-.66s-7.13-5.54-8.92-6.95s-6.38-5.91-9.1-8.54c-2.72-2.63-8.67-8.12-13.23-11.54c-6.01-4.5-18.49-10.42-21.49-11.64s-7.43-2.8-7.52-2.05z" fill="#b5cf23"/>
      <path d="M100.36 87.32c-.44-.35-7.23 4.32-9.48 5.73c-2.25 1.41-7.98 4.5-7.98 5.07s5.82 7.7 6.29 7.7s6.1-3.28 8.35-4.5s6.57-3.47 6.66-4.04c.1-.58-3.37-9.59-3.84-9.96z" fill="#e3dea1"/>
      <path d="M36.59 3.32L24.88 13.57s.7 3.91 1.55 6.29c1.6 4.5 5.23 8.89 5.23 8.89s14.36 14.36 18.86 11.17s-1.1-26.49-1.1-26.49s-2.63-4.06-6.55-6.87c-3.45-2.49-6.28-3.24-6.28-3.24z" fill="#a099f7"/>
      <path d="M27.6 3.25c-3.89 2.43-2.72 10.46-2.72 10.46s2.71-1.82 6.31-.4c3.57 1.41 8.28 6.87 9.03 6.22c.75-.66-3.97-6.36-4.04-11c-.04-2.92 1.27-5 1.27-5S31.36.9 27.6 3.25z" fill="#7e43a4"/>
      <path d="M74.18 10.4s-2.12 2.31-3.24 6.85c-1.6 6.48-.8 15.35.89 20.41c1.69 5.07 6.46 10.77 12.76 9.85c6.48-.94 8.88-8.14 9.71-13.14c.92-5.51.33-15.91-4.08-22.29c-3.07-4.44-3.21-3.71-3.21-3.71L74.18 10.4z" fill="#fe6656"/>
      <path d="M80.51 5.62c-4.92.48-7.56 6.52-7.56 6.52s3.75-1.6 6.01 1.92c1.81 2.83 2.42 10.04 3.26 9.95s1.15-7.79 1.81-9.9c1.38-4.43 5.26-3.24 5.26-3.24s-3.05-5.82-8.78-5.25z" fill="#cd1734"/>
      <path d="M52.8 12.15L47 15.96s-2.86 7.4 1.74 17.2S60.48 50.33 69.3 45.6c7.48-4 4.2-17.35.95-24.22c-2.25-4.76-5.93-9.01-9.95-11.22c-3.99-2.19-7.5 1.99-7.5 1.99z" fill="#feb804"/>
      <path d="M51.61 9.4c-3.75 1.81-4.6 6.56-4.6 6.56s2.53.57 5 1.92c3.88 2.13 6.41 8.42 7.14 8c.73-.42-1.67-6.91-.48-11.54c.65-2.54 1.64-4.23 1.64-4.23s-4.32-2.83-8.7-.71z" fill="#ff7537"/>
      <path d="M20.77 28.56l-4.6 4.32s.66 3.38 4.04 7.81c3.65 4.78 6.57 6.64 6.57 6.64s6.76.94 11.07 1.5c4.32.56 10.89 1.22 10.89 1.22s2.35-3.19 2.16-7.04s-4.79-12.39-12.86-17.18c-6.85-4.06-10.04-4.5-14.08-4.41s-3.19 7.14-3.19 7.14z" fill="#fd8695"/>
      <path d="M16.93 24.11c-2.51 3.39-.75 8.78-.75 8.78s2.94-1.26 5.68-.7c3 .61 9.39 4.46 9.85 3.85c.57-.74-4.36-5.26-5.77-9.53c-.93-2.82-.84-5.12-.84-5.12s-6.09-.1-8.17 2.72z" fill="#e658a4"/>
      <path d="M16.39 65.24l-1.2 7.25s1.69 4.5 8.31 9.95c4.3 3.54 9.67 6.01 16.52 5.54s8.54-4.13 9.29-5.91c.75-1.78 2.95-7.97-6.76-15.86c-8.78-7.13-17.08-6.62-19.9-6.48c-3.31.16-6.26 5.51-6.26 5.51z" fill="#e84b8b"/>
      <path d="M14.3 63.1c-1.68 3.84 1.08 9.85 1.08 9.85s2.07-2.18 6.01-2.44c3.61-.23 9.76 3.28 10.27 2.12c.38-.89-6.23-4.93-7.97-7.93c-1.62-2.81-1.03-4.97-1.03-4.97s-6.86-.05-8.36 3.37z" fill="#af0c1b"/>
    </svg>
    <text x="590.5" y="75.0" style="font-size: 15px;" dominant_baseline="middle" text_anchor="middle">bouquet</text>
  </g>
  <svg xmlns:xlink="http://www.w3.org/1999/xlink" version="1.1" id="Layer_1" viewBox="0 0 512 512" xml:space="preserve" x="530.0" y="120.0" width="30" height="30">
<g>
	
		<rect x="372.173" y="190.378" transform="matrix(-0.9063 -0.4226 0.4226 -0.9063 625.8049 610.86)" style="fill:#566916;" width="16.879" height="91.371"/>
	
		<rect x="85.702" y="227.632" transform="matrix(-0.4226 -0.9063 0.9063 -0.4226 -27.0423 454.9144)" style="fill:#566916;" width="91.371" height="16.879"/>
	<rect x="247.56" y="175.352" style="fill:#566916;" width="16.879" height="97.528"/>
</g>
<g>
	<polygon style="fill:#F89890;" points="288.532,0 265.7,0 247.842,90.022 304.105,45.011  "/>
	<path style="fill:#F89890;" d="M287.586,45.011h2.836C289.477,45.011,288.532,45.022,287.586,45.011z"/>
</g>
<polygon style="fill:#FFC5BF;" points="265.7,0 270.347,45.011 239.684,78.769 207.895,45.011 223.468,0 "/>
<path style="fill:#F89890;" d="M192.827,45.011c0,0-4.344,70.251-4.344,71.264c0,9.182,1.834,17.948,5.165,25.926v-0.416  l93.938-96.729C287.586,45.011,192.827,45.011,192.827,45.011z"/>
<path style="fill:#EA3F31;" d="M319.173,45.011h-28.751c-0.945,0-1.89,0.011-2.836,0.045L256,183.791  c37.292,0,67.517-30.225,67.517-67.516C323.517,115.262,319.173,45.011,319.173,45.011z"/>
<path style="fill:#F16C60;" d="M287.586,45.056c-52.179,1.497-93.938,44.178-93.938,96.729v0.416  c10.172,24.43,34.253,41.59,62.351,41.59c18.646,0,33.758-30.225,33.758-67.516C289.758,115.273,287.654,47.081,287.586,45.056z"/>
<g>
	<polygon style="fill:#F89890;" points="501.002,54.88 480.309,45.23 426.079,119.271 496.093,102.255  "/>
	<path style="fill:#F89890;" d="M481.122,95.274l2.57,1.198C482.835,96.073,481.974,95.684,481.122,95.274z"/>
</g>
<polygon style="fill:#FFC5BF;" points="480.309,45.23 465.498,87.989 423.441,105.625 408.897,61.595 442.034,27.382 "/>
<path style="fill:#F89890;" d="M395.24,55.227c0,0-33.625,61.833-34.054,62.751c-3.881,8.321-5.922,17.041-6.276,25.68l0.176-0.377  l126.016-47.966C481.122,95.274,395.24,55.227,395.24,55.227z"/>
<path style="fill:#EA3F31;" d="M509.749,108.623l-26.057-12.151c-0.856-0.399-1.718-0.789-2.589-1.158l-87.259,112.388  c33.798,15.761,73.964,1.141,89.725-32.657C483.996,174.127,509.749,108.623,509.749,108.623z"/>
<path style="fill:#F16C60;" d="M481.103,95.315c-47.923-20.695-103.808,0.339-126.016,47.966l-0.176,0.377  c-1.105,26.439,13.467,52.17,38.932,64.044c16.899,7.88,43.369-13.126,59.129-46.924C453.397,159.871,480.308,97.179,481.103,95.315  z"/>
<g>
	<polygon style="fill:#F89890;" points="69.967,27.382 49.275,37.031 71.133,126.166 103.103,61.594  "/>
	<path style="fill:#F89890;" d="M88.133,68.575l2.57-1.198C89.845,67.776,88.993,68.186,88.133,68.575z"/>
</g>
<polygon style="fill:#FFC5BF;" points="49.275,37.031 72.508,75.86 58.985,119.415 15.907,102.254 11,54.879 "/>
<path style="fill:#F89890;" d="M2.251,108.622c0,0,25.752,65.504,26.181,66.423c3.88,8.321,9.248,15.492,15.638,21.315l-0.176-0.377  L88.152,68.616C88.133,68.575,2.251,108.622,2.251,108.622z"/>
<path style="fill:#EA3F31;" d="M116.76,55.226L90.703,67.377c-0.856,0.399-1.709,0.809-2.551,1.239l30.004,139.086  c33.798-15.759,48.417-55.926,32.658-89.724C150.385,117.06,116.76,55.226,116.76,55.226z"/>
<path style="fill:#F16C60;" d="M88.152,68.616c-46.658,23.408-66.467,79.738-44.258,127.365l0.176,0.377  c19.544,17.842,48.621,23.218,74.086,11.343c16.899-7.88,17.822-41.66,2.063-75.458C119.795,131.336,89.069,70.423,88.152,68.616z"/>
<path style="fill:#A7B65F;" d="M295.385,444.484c-0.011,0-61.89-22.506-61.89-22.506L256,512h50.637L295.385,444.484z"/>
<polygon style="fill:#C4CE94;" points="256,410.725 256,512 205.363,512 216.615,444.484 "/>
<path style="fill:#A7B65F;" d="M365.714,264.44l-79.602,180.044h9.261c1.328-0.979,85.307-63.004,104.099-180.044H365.714z"/>
<path style="fill:#C4CE94;" d="M289.758,264.44L256,444.484h30.112c0,0,65.12-62.081,79.602-180.044H289.758z"/>
<path style="fill:#E2E7CA;" d="M112.516,264.44h177.242C289.758,379.78,256,444.484,256,444.484h-39.385  C216.615,444.484,131.455,382.402,112.516,264.44z"/>
<path style="fill:#9E52B6;" d="M303.824,452.923h-95.648c-4.661,0-8.44-3.779-8.44-8.44c0-4.661,3.779-8.44,8.44-8.44h95.648  c4.662,0,8.44,3.779,8.44,8.44C312.264,449.144,308.486,452.923,303.824,452.923z"/>
</svg>
  <svg xmlns:xlink="http://www.w3.org/1999/xlink" version="1.1" id="Layer_1" viewBox="0 0 512 512" xml:space="preserve" x="570.0" y="120.0" width="30" height="30">
<g>
	
		<rect x="372.173" y="190.378" transform="matrix(-0.9063 -0.4226 0.4226 -0.9063 625.8049 610.86)" style="fill:#566916;" width="16.879" height="91.371"/>
	
		<rect x="85.702" y="227.632" transform="matrix(-0.4226 -0.9063 0.9063 -0.4226 -27.0423 454.9144)" style="fill:#566916;" width="91.371" height="16.879"/>
	<rect x="247.56" y="175.352" style="fill:#566916;" width="16.879" height="97.528"/>
</g>
<g>
	<polygon style="fill:#F89890;" points="288.532,0 265.7,0 247.842,90.022 304.105,45.011  "/>
	<path style="fill:#F89890;" d="M287.586,45.011h2.836C289.477,45.011,288.532,45.022,287.586,45.011z"/>
</g>
<polygon style="fill:#FFC5BF;" points="265.7,0 270.347,45.011 239.684,78.769 207.895,45.011 223.468,0 "/>
<path style="fill:#F89890;" d="M192.827,45.011c0,0-4.344,70.251-4.344,71.264c0,9.182,1.834,17.948,5.165,25.926v-0.416  l93.938-96.729C287.586,45.011,192.827,45.011,192.827,45.011z"/>
<path style="fill:#EA3F31;" d="M319.173,45.011h-28.751c-0.945,0-1.89,0.011-2.836,0.045L256,183.791  c37.292,0,67.517-30.225,67.517-67.516C323.517,115.262,319.173,45.011,319.173,45.011z"/>
<path style="fill:#F16C60;" d="M287.586,45.056c-52.179,1.497-93.938,44.178-93.938,96.729v0.416  c10.172,24.43,34.253,41.59,62.351,41.59c18.646,0,33.758-30.225,33.758-67.516C289.758,115.273,287.654,47.081,287.586,45.056z"/>
<g>
	<polygon style="fill:#F89890;" points="501.002,54.88 480.309,45.23 426.079,119.271 496.093,102.255  "/>
	<path style="fill:#F89890;" d="M481.122,95.274l2.57,1.198C482.835,96.073,481.974,95.684,481.122,95.274z"/>
</g>
<polygon style="fill:#FFC5BF;" points="480.309,45.23 465.498,87.989 423.441,105.625 408.897,61.595 442.034,27.382 "/>
<path style="fill:#F89890;" d="M395.24,55.227c0,0-33.625,61.833-34.054,62.751c-3.881,8.321-5.922,17.041-6.276,25.68l0.176-0.377  l126.016-47.966C481.122,95.274,395.24,55.227,395.24,55.227z"/>
<path style="fill:#EA3F31;" d="M509.749,108.623l-26.057-12.151c-0.856-0.399-1.718-0.789-2.589-1.158l-87.259,112.388  c33.798,15.761,73.964,1.141,89.725-32.657C483.996,174.127,509.749,108.623,509.749,108.623z"/>
<path style="fill:#F16C60;" d="M481.103,95.315c-47.923-20.695-103.808,0.339-126.016,47.966l-0.176,0.377  c-1.105,26.439,13.467,52.17,38.932,64.044c16.899,7.88,43.369-13.126,59.129-46.924C453.397,159.871,480.308,97.179,481.103,95.315  z"/>
<g>
	<polygon style="fill:#F89890;" points="69.967,27.382 49.275,37.031 71.133,126.166 103.103,61.594  "/>
	<path style="fill:#F89890;" d="M88.133,68.575l2.57-1.198C89.845,67.776,88.993,68.186,88.133,68.575z"/>
</g>
<polygon style="fill:#FFC5BF;" points="49.275,37.031 72.508,75.86 58.985,119.415 15.907,102.254 11,54.879 "/>
<path style="fill:#F89890;" d="M2.251,108.622c0,0,25.752,65.504,26.181,66.423c3.88,8.321,9.248,15.492,15.638,21.315l-0.176-0.377  L88.152,68.616C88.133,68.575,2.251,108.622,2.251,108.622z"/>
<path style="fill:#EA3F31;" d="M116.76,55.226L90.703,67.377c-0.856,0.399-1.709,0.809-2.551,1.239l30.004,139.086  c33.798-15.759,48.417-55.926,32.658-89.724C150.385,117.06,116.76,55.226,116.76,55.226z"/>
<path style="fill:#F16C60;" d="M88.152,68.616c-46.658,23.408-66.467,79.738-44.258,127.365l0.176,0.377  c19.544,17.842,48.621,23.218,74.086,11.343c16.899-7.88,17.822-41.66,2.063-75.458C119.795,131.336,89.069,70.423,88.152,68.616z"/>
<path style="fill:#A7B65F;" d="M295.385,444.484c-0.011,0-61.89-22.506-61.89-22.506L256,512h50.637L295.385,444.484z"/>
<polygon style="fill:#C4CE94;" points="256,410.725 256,512 205.363,512 216.615,444.484 "/>
<path style="fill:#A7B65F;" d="M365.714,264.44l-79.602,180.044h9.261c1.328-0.979,85.307-63.004,104.099-180.044H365.714z"/>
<path style="fill:#C4CE94;" d="M289.758,264.44L256,444.484h30.112c0,0,65.12-62.081,79.602-180.044H289.758z"/>
<path style="fill:#E2E7CA;" d="M112.516,264.44h177.242C289.758,379.78,256,444.484,256,444.484h-39.385  C216.615,444.484,131.455,382.402,112.516,264.44z"/>
<path style="fill:#9E52B6;" d="M303.824,452.923h-95.648c-4.661,0-8.44-3.779-8.44-8.44c0-4.661,3.779-8.44,8.44-8.44h95.648  c4.662,0,8.44,3.779,8.44,8.44C312.264,449.144,308.486,452.923,303.824,452.923z"/>
</svg>
  <svg xmlns:xlink="http://www.w3.org/1999/xlink" version="1.1" id="Layer_1" viewBox="0 0 512 512" xml:space="preserve" x="610.0" y="120.0" width="30" height="30">
<g>
	
		<rect x="372.173" y="190.378" transform="matrix(-0.9063 -0.4226 0.4226 -0.9063 625.8049 610.86)" style="fill:#566916;" width="16.879" height="91.371"/>
	
		<rect x="85.702" y="227.632" transform="matrix(-0.4226 -0.9063 0.9063 -0.4226 -27.0423 454.9144)" style="fill:#566916;" width="91.371" height="16.879"/>
	<rect x="247.56" y="175.352" style="fill:#566916;" width="16.879" height="97.528"/>
</g>
<g>
	<polygon style="fill:#F89890;" points="288.532,0 265.7,0 247.842,90.022 304.105,45.011  "/>
	<path style="fill:#F89890;" d="M287.586,45.011h2.836C289.477,45.011,288.532,45.022,287.586,45.011z"/>
</g>
<polygon style="fill:#FFC5BF;" points="265.7,0 270.347,45.011 239.684,78.769 207.895,45.011 223.468,0 "/>
<path style="fill:#F89890;" d="M192.827,45.011c0,0-4.344,70.251-4.344,71.264c0,9.182,1.834,17.948,5.165,25.926v-0.416  l93.938-96.729C287.586,45.011,192.827,45.011,192.827,45.011z"/>
<path style="fill:#EA3F31;" d="M319.173,45.011h-28.751c-0.945,0-1.89,0.011-2.836,0.045L256,183.791  c37.292,0,67.517-30.225,67.517-67.516C323.517,115.262,319.173,45.011,319.173,45.011z"/>
<path style="fill:#F16C60;" d="M287.586,45.056c-52.179,1.497-93.938,44.178-93.938,96.729v0.416  c10.172,24.43,34.253,41.59,62.351,41.59c18.646,0,33.758-30.225,33.758-67.516C289.758,115.273,287.654,47.081,287.586,45.056z"/>
<g>
	<polygon style="fill:#F89890;" points="501.002,54.88 480.309,45.23 426.079,119.271 496.093,102.255  "/>
	<path style="fill:#F89890;" d="M481.122,95.274l2.57,1.198C482.835,96.073,481.974,95.684,481.122,95.274z"/>
</g>
<polygon style="fill:#FFC5BF;" points="480.309,45.23 465.498,87.989 423.441,105.625 408.897,61.595 442.034,27.382 "/>
<path style="fill:#F89890;" d="M395.24,55.227c0,0-33.625,61.833-34.054,62.751c-3.881,8.321-5.922,17.041-6.276,25.68l0.176-0.377  l126.016-47.966C481.122,95.274,395.24,55.227,395.24,55.227z"/>
<path style="fill:#EA3F31;" d="M509.749,108.623l-26.057-12.151c-0.856-0.399-1.718-0.789-2.589-1.158l-87.259,112.388  c33.798,15.761,73.964,1.141,89.725-32.657C483.996,174.127,509.749,108.623,509.749,108.623z"/>
<path style="fill:#F16C60;" d="M481.103,95.315c-47.923-20.695-103.808,0.339-126.016,47.966l-0.176,0.377  c-1.105,26.439,13.467,52.17,38.932,64.044c16.899,7.88,43.369-13.126,59.129-46.924C453.397,159.871,480.308,97.179,481.103,95.315  z"/>
<g>
	<polygon style="fill:#F89890;" points="69.967,27.382 49.275,37.031 71.133,126.166 103.103,61.594  "/>
	<path style="fill:#F89890;" d="M88.133,68.575l2.57-1.198C89.845,67.776,88.993,68.186,88.133,68.575z"/>
</g>
<polygon style="fill:#FFC5BF;" points="49.275,37.031 72.508,75.86 58.985,119.415 15.907,102.254 11,54.879 "/>
<path style="fill:#F89890;" d="M2.251,108.622c0,0,25.752,65.504,26.181,66.423c3.88,8.321,9.248,15.492,15.638,21.315l-0.176-0.377  L88.152,68.616C88.133,68.575,2.251,108.622,2.251,108.622z"/>
<path style="fill:#EA3F31;" d="M116.76,55.226L90.703,67.377c-0.856,0.399-1.709,0.809-2.551,1.239l30.004,139.086  c33.798-15.759,48.417-55.926,32.658-89.724C150.385,117.06,116.76,55.226,116.76,55.226z"/>
<path style="fill:#F16C60;" d="M88.152,68.616c-46.658,23.408-66.467,79.738-44.258,127.365l0.176,0.377  c19.544,17.842,48.621,23.218,74.086,11.343c16.899-7.88,17.822-41.66,2.063-75.458C119.795,131.336,89.069,70.423,88.152,68.616z"/>
<path style="fill:#A7B65F;" d="M295.385,444.484c-0.011,0-61.89-22.506-61.89-22.506L256,512h50.637L295.385,444.484z"/>
<polygon style="fill:#C4CE94;" points="256,410.725 256,512 205.363,512 216.615,444.484 "/>
<path style="fill:#A7B65F;" d="M365.714,264.44l-79.602,180.044h9.261c1.328-0.979,85.307-63.004,104.099-180.044H365.714z"/>
<path style="fill:#C4CE94;" d="M289.758,264.44L256,444.484h30.112c0,0,65.12-62.081,79.602-180.044H289.758z"/>
<path style="fill:#E2E7CA;" d="M112.516,264.44h177.242C289.758,379.78,256,444.484,256,444.484h-39.385  C216.615,444.484,131.455,382.402,112.516,264.44z"/>
<path style="fill:#9E52B6;" d="M303.824,452.923h-95.648c-4.661,0-8.44-3.779-8.44-8.44c0-4.661,3.779-8.44,8.44-8.44h95.648  c4.662,0,8.44,3.779,8.44,8.44C312.264,449.144,308.486,452.923,303.824,452.923z"/>
</svg>
  <svg xmlns:xlink="http://www.w3.org/1999/xlink" version="1.1" id="Layer_1" viewBox="0 0 512 512" xml:space="preserve" x="530.0" y="160.0" width="30" height="30">
<g>
	
		<rect x="372.173" y="190.378" transform="matrix(-0.9063 -0.4226 0.4226 -0.9063 625.8049 610.86)" style="fill:#566916;" width="16.879" height="91.371"/>
	
		<rect x="85.702" y="227.632" transform="matrix(-0.4226 -0.9063 0.9063 -0.4226 -27.0423 454.9144)" style="fill:#566916;" width="91.371" height="16.879"/>
	<rect x="247.56" y="175.352" style="fill:#566916;" width="16.879" height="97.528"/>
</g>
<g>
	<polygon style="fill:#F89890;" points="288.532,0 265.7,0 247.842,90.022 304.105,45.011  "/>
	<path style="fill:#F89890;" d="M287.586,45.011h2.836C289.477,45.011,288.532,45.022,287.586,45.011z"/>
</g>
<polygon style="fill:#FFC5BF;" points="265.7,0 270.347,45.011 239.684,78.769 207.895,45.011 223.468,0 "/>
<path style="fill:#F89890;" d="M192.827,45.011c0,0-4.344,70.251-4.344,71.264c0,9.182,1.834,17.948,5.165,25.926v-0.416  l93.938-96.729C287.586,45.011,192.827,45.011,192.827,45.011z"/>
<path style="fill:#EA3F31;" d="M319.173,45.011h-28.751c-0.945,0-1.89,0.011-2.836,0.045L256,183.791  c37.292,0,67.517-30.225,67.517-67.516C323.517,115.262,319.173,45.011,319.173,45.011z"/>
<path style="fill:#F16C60;" d="M287.586,45.056c-52.179,1.497-93.938,44.178-93.938,96.729v0.416  c10.172,24.43,34.253,41.59,62.351,41.59c18.646,0,33.758-30.225,33.758-67.516C289.758,115.273,287.654,47.081,287.586,45.056z"/>
<g>
	<polygon style="fill:#F89890;" points="501.002,54.88 480.309,45.23 426.079,119.271 496.093,102.255  "/>
	<path style="fill:#F89890;" d="M481.122,95.274l2.57,1.198C482.835,96.073,481.974,95.684,481.122,95.274z"/>
</g>
<polygon style="fill:#FFC5BF;" points="480.309,45.23 465.498,87.989 423.441,105.625 408.897,61.595 442.034,27.382 "/>
<path style="fill:#F89890;" d="M395.24,55.227c0,0-33.625,61.833-34.054,62.751c-3.881,8.321-5.922,17.041-6.276,25.68l0.176-0.377  l126.016-47.966C481.122,95.274,395.24,55.227,395.24,55.227z"/>
<path style="fill:#EA3F31;" d="M509.749,108.623l-26.057-12.151c-0.856-0.399-1.718-0.789-2.589-1.158l-87.259,112.388  c33.798,15.761,73.964,1.141,89.725-32.657C483.996,174.127,509.749,108.623,509.749,108.623z"/>
<path style="fill:#F16C60;" d="M481.103,95.315c-47.923-20.695-103.808,0.339-126.016,47.966l-0.176,0.377  c-1.105,26.439,13.467,52.17,38.932,64.044c16.899,7.88,43.369-13.126,59.129-46.924C453.397,159.871,480.308,97.179,481.103,95.315  z"/>
<g>
	<polygon style="fill:#F89890;" points="69.967,27.382 49.275,37.031 71.133,126.166 103.103,61.594  "/>
	<path style="fill:#F89890;" d="M88.133,68.575l2.57-1.198C89.845,67.776,88.993,68.186,88.133,68.575z"/>
</g>
<polygon style="fill:#FFC5BF;" points="49.275,37.031 72.508,75.86 58.985,119.415 15.907,102.254 11,54.879 "/>
<path style="fill:#F89890;" d="M2.251,108.622c0,0,25.752,65.504,26.181,66.423c3.88,8.321,9.248,15.492,15.638,21.315l-0.176-0.377  L88.152,68.616C88.133,68.575,2.251,108.622,2.251,108.622z"/>
<path style="fill:#EA3F31;" d="M116.76,55.226L90.703,67.377c-0.856,0.399-1.709,0.809-2.551,1.239l30.004,139.086  c33.798-15.759,48.417-55.926,32.658-89.724C150.385,117.06,116.76,55.226,116.76,55.226z"/>
<path style="fill:#F16C60;" d="M88.152,68.616c-46.658,23.408-66.467,79.738-44.258,127.365l0.176,0.377  c19.544,17.842,48.621,23.218,74.086,11.343c16.899-7.88,17.822-41.66,2.063-75.458C119.795,131.336,89.069,70.423,88.152,68.616z"/>
<path style="fill:#A7B65F;" d="M295.385,444.484c-0.011,0-61.89-22.506-61.89-22.506L256,512h50.637L295.385,444.484z"/>
<polygon style="fill:#C4CE94;" points="256,410.725 256,512 205.363,512 216.615,444.484 "/>
<path style="fill:#A7B65F;" d="M365.714,264.44l-79.602,180.044h9.261c1.328-0.979,85.307-63.004,104.099-180.044H365.714z"/>
<path style="fill:#C4CE94;" d="M289.758,264.44L256,444.484h30.112c0,0,65.12-62.081,79.602-180.044H289.758z"/>
<path style="fill:#E2E7CA;" d="M112.516,264.44h177.242C289.758,379.78,256,444.484,256,444.484h-39.385  C216.615,444.484,131.455,382.402,112.516,264.44z"/>
<path style="fill:#9E52B6;" d="M303.824,452.923h-95.648c-4.661,0-8.44-3.779-8.44-8.44c0-4.661,3.779-8.44,8.44-8.44h95.648  c4.662,0,8.44,3.779,8.44,8.44C312.264,449.144,308.486,452.923,303.824,452.923z"/>
</svg>
  <svg xmlns:xlink="http://www.w3.org/1999/xlink" version="1.1" id="Layer_1" viewBox="0 0 512 512" xml:space="preserve" x="570.0" y="160.0" width="30" height="30">
<g>
	
		<rect x="372.173" y="190.378" transform="matrix(-0.9063 -0.4226 0.4226 -0.9063 625.8049 610.86)" style="fill:#566916;" width="16.879" height="91.371"/>
	
		<rect x="85.702" y="227.632" transform="matrix(-0.4226 -0.9063 0.9063 -0.4226 -27.0423 454.9144)" style="fill:#566916;" width="91.371" height="16.879"/>
	<rect x="247.56" y="175.352" style="fill:#566916;" width="16.879" height="97.528"/>
</g>
<g>
	<polygon style="fill:#F89890;" points="288.532,0 265.7,0 247.842,90.022 304.105,45.011  "/>
	<path style="fill:#F89890;" d="M287.586,45.011h2.836C289.477,45.011,288.532,45.022,287.586,45.011z"/>
</g>
<polygon style="fill:#FFC5BF;" points="265.7,0 270.347,45.011 239.684,78.769 207.895,45.011 223.468,0 "/>
<path style="fill:#F89890;" d="M192.827,45.011c0,0-4.344,70.251-4.344,71.264c0,9.182,1.834,17.948,5.165,25.926v-0.416  l93.938-96.729C287.586,45.011,192.827,45.011,192.827,45.011z"/>
<path style="fill:#EA3F31;" d="M319.173,45.011h-28.751c-0.945,0-1.89,0.011-2.836,0.045L256,183.791  c37.292,0,67.517-30.225,67.517-67.516C323.517,115.262,319.173,45.011,319.173,45.011z"/>
<path style="fill:#F16C60;" d="M287.586,45.056c-52.179,1.497-93.938,44.178-93.938,96.729v0.416  c10.172,24.43,34.253,41.59,62.351,41.59c18.646,0,33.758-30.225,33.758-67.516C289.758,115.273,287.654,47.081,287.586,45.056z"/>
<g>
	<polygon style="fill:#F89890;" points="501.002,54.88 480.309,45.23 426.079,119.271 496.093,102.255  "/>
	<path style="fill:#F89890;" d="M481.122,95.274l2.57,1.198C482.835,96.073,481.974,95.684,481.122,95.274z"/>
</g>
<polygon style="fill:#FFC5BF;" points="480.309,45.23 465.498,87.989 423.441,105.625 408.897,61.595 442.034,27.382 "/>
<path style="fill:#F89890;" d="M395.24,55.227c0,0-33.625,61.833-34.054,62.751c-3.881,8.321-5.922,17.041-6.276,25.68l0.176-0.377  l126.016-47.966C481.122,95.274,395.24,55.227,395.24,55.227z"/>
<path style="fill:#EA3F31;" d="M509.749,108.623l-26.057-12.151c-0.856-0.399-1.718-0.789-2.589-1.158l-87.259,112.388  c33.798,15.761,73.964,1.141,89.725-32.657C483.996,174.127,509.749,108.623,509.749,108.623z"/>
<path style="fill:#F16C60;" d="M481.103,95.315c-47.923-20.695-103.808,0.339-126.016,47.966l-0.176,0.377  c-1.105,26.439,13.467,52.17,38.932,64.044c16.899,7.88,43.369-13.126,59.129-46.924C453.397,159.871,480.308,97.179,481.103,95.315  z"/>
<g>
	<polygon style="fill:#F89890;" points="69.967,27.382 49.275,37.031 71.133,126.166 103.103,61.594  "/>
	<path style="fill:#F89890;" d="M88.133,68.575l2.57-1.198C89.845,67.776,88.993,68.186,88.133,68.575z"/>
</g>
<polygon style="fill:#FFC5BF;" points="49.275,37.031 72.508,75.86 58.985,119.415 15.907,102.254 11,54.879 "/>
<path style="fill:#F89890;" d="M2.251,108.622c0,0,25.752,65.504,26.181,66.423c3.88,8.321,9.248,15.492,15.638,21.315l-0.176-0.377  L88.152,68.616C88.133,68.575,2.251,108.622,2.251,108.622z"/>
<path style="fill:#EA3F31;" d="M116.76,55.226L90.703,67.377c-0.856,0.399-1.709,0.809-2.551,1.239l30.004,139.086  c33.798-15.759,48.417-55.926,32.658-89.724C150.385,117.06,116.76,55.226,116.76,55.226z"/>
<path style="fill:#F16C60;" d="M88.152,68.616c-46.658,23.408-66.467,79.738-44.258,127.365l0.176,0.377  c19.544,17.842,48.621,23.218,74.086,11.343c16.899-7.88,17.822-41.66,2.063-75.458C119.795,131.336,89.069,70.423,88.152,68.616z"/>
<path style="fill:#A7B65F;" d="M295.385,444.484c-0.011,0-61.89-22.506-61.89-22.506L256,512h50.637L295.385,444.484z"/>
<polygon style="fill:#C4CE94;" points="256,410.725 256,512 205.363,512 216.615,444.484 "/>
<path style="fill:#A7B65F;" d="M365.714,264.44l-79.602,180.044h9.261c1.328-0.979,85.307-63.004,104.099-180.044H365.714z"/>
<path style="fill:#C4CE94;" d="M289.758,264.44L256,444.484h30.112c0,0,65.12-62.081,79.602-180.044H289.758z"/>
<path style="fill:#E2E7CA;" d="M112.516,264.44h177.242C289.758,379.78,256,444.484,256,444.484h-39.385  C216.615,444.484,131.455,382.402,112.516,264.44z"/>
<path style="fill:#9E52B6;" d="M303.824,452.923h-95.648c-4.661,0-8.44-3.779-8.44-8.44c0-4.661,3.779-8.44,8.44-8.44h95.648  c4.662,0,8.44,3.779,8.44,8.44C312.264,449.144,308.486,452.923,303.824,452.923z"/>
</svg>
  <svg xmlns:xlink="http://www.w3.org/1999/xlink" version="1.1" id="Layer_1" viewBox="0 0 495 495" xml:space="preserve" x="230" y="165.0" width="30" height="30">
<rect y="227.5" style="fill:#2488FF;" width="495" height="40"/>
</svg>
  <svg fill="#2388ff" width="30" height="30" viewBox="-3 0 19 19" class="cf-icon-svg" x="460" y="165.0">

<g id="SVGRepo_bgCarrier" stroke-width="0"/>

<g id="SVGRepo_tracerCarrier" stroke-linecap="round" stroke-linejoin="round"/>

<g id="SVGRepo_iconCarrier">

<path d="M12.711 9.182a1.03 1.03 0 0 1-1.03 1.03H1.319a1.03 1.03 0 1 1 0-2.059h10.364a1.03 1.03 0 0 1 1.029 1.03zM5.03 4.586a1.47 1.47 0 1 1 1.47 1.47 1.47 1.47 0 0 1-1.47-1.47zm2.94 9.193a1.47 1.47 0 1 1-1.47-1.47 1.47 1.47 0 0 1 1.47 1.47z"/>

</g>

</svg>
  <svg fill="#2388ff" width="30" height="30" viewBox="0 0 256 256" id="Flat" x="690" y="165.0">

<g id="SVGRepo_bgCarrier" stroke-width="0"/>

<g id="SVGRepo_tracerCarrier" stroke-linecap="round" stroke-linejoin="round"/>

<g id="SVGRepo_iconCarrier"> <path d="M224,160a8.00008,8.00008,0,0,1-8,8H40a8,8,0,0,1,0-16H216A8.00008,8.00008,0,0,1,224,160ZM40,104H216a8,8,0,0,0,0-16H40a8,8,0,0,0,0,16Z"/> </g>

</svg>
  <svg xmlns:xlink="http://www.w3.org/1999/xlink" xmlns:serif="http://www.serif.com/" fill="#2388ff" width="60" height="60" viewBox="0 0 64 64" version="1.1" xml:space="preserve" style="fill-rule:evenodd;clip-rule:evenodd;stroke-linejoin:round;stroke-miterlimit:2;" stroke="#2388ff" x="740" y="150.0">

<g id="SVGRepo_bgCarrier" stroke-width="0"/>

<g id="SVGRepo_tracerCarrier" stroke-linecap="round" stroke-linejoin="round"/>

<g id="SVGRepo_iconCarrier"> <rect id="Icons" x="-640" y="-192" width="1280" height="800" style="fill:none;"/> <g id="Icons1" serif:id="Icons"> <g id="Strike"> </g> <g id="H1"> </g> <g id="H2"> </g> <g id="H3"> </g> <g id="list-ul"> </g> <g id="hamburger-1"> </g> <g id="hamburger-2"> </g> <g id="list-ol"> </g> <g id="list-task"> </g> <g id="trash"> </g> <g id="vertical-menu"> </g> <g id="horizontal-menu"> </g> <g id="sidebar-2"> </g> <g id="Pen"> </g> <g id="Pen1" serif:id="Pen"> </g> <g id="clock"> </g> <g id="external-link"> </g> <g id="hr"> </g> <g id="info"> </g> <g id="warning"> </g> <g id="plus-circle"> </g> <g id="minus-circle"> </g> <g id="vue"> </g> <g id="cog"> </g> <g id="logo"> </g> <path id="question" d="M27.952,42.387c0.043,-2.56 0.333,-4.583 0.871,-6.068c0.538,-1.485 1.636,-3.131 3.293,-4.939l4.229,-4.358c1.807,-2.044 2.711,-4.239 2.711,-6.585c0,-2.259 -0.592,-4.029 -1.775,-5.31c-1.184,-1.28 -2.905,-1.92 -5.165,-1.92c-2.195,0 -3.96,0.581 -5.294,1.743c-1.334,1.162 -2.001,2.722 -2.001,4.68l-5.972,0c0.043,-3.486 1.286,-6.3 3.728,-8.441c2.443,-2.141 5.622,-3.212 9.539,-3.212c4.067,0 7.236,1.092 9.506,3.277c2.271,2.184 3.406,5.181 3.406,8.99c0,3.765 -1.743,7.478 -5.229,11.136l-3.519,3.486c-1.571,1.743 -2.356,4.25 -2.356,7.521l-5.972,0Zm-0.258,10.233c0,-0.968 0.296,-1.781 0.887,-2.437c0.592,-0.656 1.469,-0.985 2.631,-0.985c1.162,0 2.045,0.329 2.647,0.985c0.603,0.656 0.904,1.469 0.904,2.437c0,0.969 -0.301,1.77 -0.904,2.405c-0.602,0.635 -1.485,0.952 -2.647,0.952c-1.162,0 -2.039,-0.317 -2.631,-0.952c-0.591,-0.635 -0.887,-1.436 -0.887,-2.405Z" style="fill-rule:nonzero;"/> <g id="radio-check"> </g> <g id="eye-slash"> </g> <g id="eye"> </g> <g id="toggle-off"> </g> <g id="shredder"> </g> <g id="spinner--loading--dots-" serif:id="spinner [loading, dots]"> </g> <g id="react"> </g> <g id="check-selected"> </g> <g id="turn-off"> </g> <g id="code-block"> </g> <g id="user"> </g> <g id="coffee-bean"> </g> <g id="coffee-beans"> <g id="coffee-bean1" serif:id="coffee-bean"> </g> </g> <g id="coffee-bean-filled"> </g> <g id="coffee-beans-filled"> <g id="coffee-bean2" serif:id="coffee-bean"> </g> </g> <g id="clipboard"> </g> <g id="clipboard-paste"> </g> <g id="clipboard-copy"> </g> <g id="Layer1"> </g> </g> </g>

</svg>
</svg>
